<?xml version="1.0" encoding="utf-8"?>
<!-- Generator: Adobe Illustrator 24.0.2, SVG Export Plug-In . SVG Version: 6.00 Build 0)  -->
<svg version="1.1" xmlns="http://www.w3.org/2000/svg" xmlns:xlink="http://www.w3.org/1999/xlink" x="0px" y="0px"
	 viewBox="0 0 256 256" style="enable-background:new 0 0 256 256;" xml:space="preserve">
<style type="text/css">
	.st0{display:none;}
	.st1{display:inline;}
	.st2{fill:#FFFFFF;}
	.st3{display:inline;fill:#FFFFFF;}
</style>
<g id="back" class="st0">
	<circle class="st1" cx="128" cy="128" r="128"/>
</g>
<g id="artstation" class="st0">
	<g class="st1">
		<path class="st2" d="M39.29,159.1l15.04,26l0,0c2.96,5.87,9.04,9.89,16.06,9.89l0.01,0l0,0h99.83l-20.72-35.9H39.29z"/>
		<path class="st2" d="M217.37,159.29c0-3.59-1.06-6.94-2.88-9.75l-58.5-101.7c-3.02-5.69-9-9.56-15.89-9.56h-30.92l90.36,156.57
			l14.24-24.67C216.6,165.45,217.37,163.36,217.37,159.29z"/>
		<polygon class="st2" points="134.8,133.6 94.41,63.64 54.02,133.6 		"/>
	</g>
</g>
<g id="da" class="st0">
	<polygon id="polygon8" class="st3" points="105.29,218.28 108.64,215.02 124.06,185.59 128.91,182.33 184.06,182.33 184.06,137.31 
		153.75,137.31 151.02,134.05 184.06,71.05 184.06,38.28 183.97,38.28 151.28,38.28 148.02,41.54 132.61,71.05 127.76,74.31 
		72.61,74.31 72.61,119.25 102.91,119.25 105.65,122.51 72.61,185.59 72.61,218.28 72.61,218.28 	"/>
</g>
<g id="kofi" class="st0">
	<path class="st3" d="M234.16,108.32c-2.69-14.22-10.35-23.08-18.19-28.56c-8.11-5.66-17.83-8.58-27.73-8.58H47.8
		c-4.89,0-6.76,4.77-6.78,7.16c0,0.31,0.01,1.56,0.01,1.56s-0.23,62.13,0.21,95.32c1.33,19.59,20.95,19.59,20.95,19.59
		s64.09-0.19,94.82-0.38c1.44-0.01,2.88-0.16,4.28-0.51c17.5-4.38,19.31-20.64,19.12-29.7
		C215.59,166.17,240.41,141.35,234.16,108.32z M144.94,137.04c-10.07,11.75-32.42,32.15-32.42,32.15s-0.98,0.96-2.5,0.19
		c-0.61-0.45-0.88-0.73-0.88-0.73c-3.58-3.56-27.23-24.64-32.61-31.96c-0.43-0.58-0.83-1.2-1.22-1.84c-5-8-6.93-20.82,0.28-28.49
		c7.68-8.17,24.29-8.78,35.27,3.29c0,0,12.66-14.4,28.04-7.79c4.42,1.9,7.51,4.72,9.48,8.02
		C153.51,118.09,151.41,129.44,144.94,137.04z M194.64,140.56c-7.5,0.94-13.6,0.23-13.6,0.23V94.86h9.23
		c6.1,0,11.99,2.54,15.97,7.16c2.8,3.25,5.04,7.84,5.04,14.16C211.29,131.66,203.32,137.75,194.64,140.56z"/>
</g>
<g id="instagram">
	<path class="st2" d="M128.31,42.86c-23.08,0-25.98,0.1-35.05,0.51c-9.05,0.41-15.23,1.85-20.63,3.95
		c-5.59,2.17-10.33,5.08-15.06,9.8c-4.73,4.72-7.63,9.47-9.81,15.06c-2.11,5.41-3.54,11.58-3.95,20.63
		c-0.41,9.07-0.51,11.97-0.51,35.05s0.1,25.97,0.51,35.04c0.42,9.05,1.85,15.23,3.95,20.63c2.17,5.59,5.08,10.33,9.8,15.06
		c4.72,4.73,9.47,7.64,15.05,9.81c5.41,2.1,11.59,3.53,20.63,3.95c9.07,0.41,11.96,0.51,35.04,0.51c23.09,0,25.97-0.1,35.04-0.51
		c9.05-0.41,15.23-1.85,20.64-3.95c5.59-2.17,10.32-5.08,15.05-9.81c4.73-4.72,7.63-9.47,9.81-15.06
		c2.09-5.41,3.52-11.58,3.95-20.63c0.41-9.07,0.51-11.96,0.51-35.04s-0.11-25.98-0.51-35.05c-0.42-9.05-1.86-15.23-3.95-20.63
		c-2.18-5.59-5.08-10.33-9.81-15.06c-4.73-4.73-9.46-7.63-15.05-9.8c-5.42-2.1-11.6-3.53-20.65-3.95
		c-9.07-0.41-11.95-0.51-35.04-0.51H128.31z M120.68,58.18c2.26,0,4.79,0,7.63,0c22.69,0,25.38,0.08,34.35,0.49
		c8.29,0.38,12.79,1.76,15.78,2.93c3.97,1.54,6.79,3.38,9.77,6.36c2.97,2.98,4.82,5.81,6.36,9.78c1.16,2.99,2.55,7.49,2.93,15.78
		c0.41,8.96,0.5,11.65,0.5,34.34s-0.09,25.38-0.5,34.34c-0.38,8.29-1.76,12.79-2.93,15.78c-1.54,3.97-3.39,6.79-6.36,9.76
		c-2.98,2.98-5.8,4.82-9.77,6.36c-2.99,1.17-7.49,2.55-15.78,2.93c-8.96,0.41-11.65,0.5-34.35,0.5c-22.7,0-25.39-0.09-34.35-0.5
		c-8.29-0.38-12.79-1.77-15.78-2.93c-3.97-1.54-6.8-3.38-9.77-6.36c-2.98-2.97-4.82-5.8-6.36-9.77c-1.16-2.99-2.55-7.49-2.93-15.78
		c-0.41-8.96-0.49-11.65-0.49-34.35s0.08-25.38,0.49-34.34c0.38-8.29,1.76-12.79,2.93-15.78c1.54-3.97,3.39-6.8,6.36-9.78
		s5.81-4.82,9.77-6.36c3-1.17,7.5-2.55,15.78-2.93c7.84-0.35,10.88-0.46,26.72-0.48L120.68,58.18z M173.68,72.29
		c-5.63,0-10.2,4.56-10.2,10.2c0,5.63,4.57,10.2,10.2,10.2s10.2-4.57,10.2-10.2S179.31,72.29,173.68,72.29L173.68,72.29z
		 M128.31,84.21c-24.11,0-43.65,19.54-43.65,43.65s19.54,43.64,43.65,43.64s43.64-19.54,43.64-43.64S152.41,84.21,128.31,84.21
		L128.31,84.21z M128.31,99.53c15.65,0,28.33,12.68,28.33,28.33c0,15.65-12.69,28.33-28.33,28.33c-15.65,0-28.33-12.69-28.33-28.33
		C99.98,112.21,112.66,99.53,128.31,99.53z"/>
</g>
<g id="twitter" class="st0">
	<g id="layer1" transform="translate(-282.32053,-396.30734)" class="st1">
		<g id="path5">
			<path class="st2" d="M496.37,470.98c-6.31,2.8-13.09,4.69-20.21,5.54c7.26-4.35,12.84-11.25,15.47-19.47
				c-6.8,4.03-14.33,6.96-22.34,8.54c-6.42-6.84-15.56-11.11-25.68-11.11c-19.43,0-35.19,15.75-35.19,35.19
				c0,2.76,0.31,5.44,0.91,8.02c-29.24-1.47-55.17-15.48-72.52-36.76c-3.03,5.2-4.76,11.24-4.76,17.69
				c0,12.21,6.21,22.98,15.65,29.29c-5.77-0.18-11.19-1.77-15.94-4.4c0,0.15,0,0.29,0,0.44c0,17.05,12.13,31.27,28.23,34.5
				c-2.95,0.8-6.06,1.23-9.27,1.23c-2.27,0-4.47-0.22-6.62-0.63c4.48,13.98,17.47,24.15,32.87,24.43
				c-12.04,9.44-27.21,15.06-43.7,15.06c-2.84,0-5.64-0.17-8.39-0.49c15.57,9.98,34.07,15.81,53.94,15.81
				c64.72,0,100.11-53.62,100.11-100.11c0-1.53-0.03-3.04-0.1-4.55C485.69,484.23,491.66,478.04,496.37,470.98L496.37,470.98z"/>
		</g>
	</g>
</g>
</svg>
