<svg id="Layer_1" data-name="Layer 1" xmlns="http://www.w3.org/2000/svg" viewBox="0 0 168.43 92.59"><title>shell-snail</title><path d="M723.67,745.24c8.75,3.6,19-1.1,26.4-5.84,8.2-5.27,15.38-12.6,17.11-22.53,3.18-18.3-9.83-34.74-26.7-40-15.74-4.92-34.95-1.63-46.42,10.75-7.2,7.77-11.09,18.05-12.25,28.48a58.47,58.47,0,0,0,.39,15.63c0.9,5.67,3.62,10.67,4.79,16.22,2.74,13-18.26,12.35-26.32,11s-18.78-3.52-24,4.67c-1.73,2.72,2.59,5.23,4.32,2.52,4.3-6.76,16.34-2.56,22.61-1.66A38.44,38.44,0,0,0,683.46,762c7.78-3.29,10.23-9.61,7.74-17.57-1.33-4.24-3.14-8.18-3.94-12.59a53.84,53.84,0,0,1-.46-15.77c2.2-18.93,15-34.09,34.31-36.16,15.13-1.62,32,4.56,38.6,19.1,5.32,11.71,2.92,23.49-6.68,32-6.83,6-18.73,13.26-28,9.42-3-1.22-4.27,3.61-1.33,4.82h0Z" transform="translate(-636.27 -674.67)"/><path d="M700.92,747.67a59.44,59.44,0,0,1-4.75,14.4l4.32,2.52a13,13,0,0,1,4.1-4.6l-3.76-2.16c1.51,11.75,17.34,8.45,22.6,1.06,2-2.74.79-5.94-2.85-5.53-4.58.51-4.81,4.75-3.29,8.3,2,4.62,6.35,5.51,10.91,4.6,6.69-1.34,13.26-4.38,19.72-6.54,17.15-5.73,36-11.34,53.75-5,3,1.09,4.34-3.74,1.33-4.82-18.84-6.76-39-.88-57.18,5.23-4.23,1.42-8.46,2.87-12.67,4.36-2.57.91-7.56,3.38-10.16,1.63-0.89-.6-1.9-3.41-1.55-2.89-2.35-3.52-3.18-.78-6,0.67s-9,3.6-9.65-1.08c-0.21-1.62-2.06-3.46-3.76-2.16-2.47,1.88-4.46,3.6-5.9,6.4s2.84,5.39,4.32,2.52a64.39,64.39,0,0,0,5.25-15.6c0.71-3.13-4.11-4.47-4.82-1.33h0Z" transform="translate(-636.27 -674.67)"/><path d="M784.17,728.57c-2.94,4.48-5.66,9.76-5.34,15.26,0.19,3.2,5.19,3.22,5,0-0.27-4.65,2.18-9,4.66-12.74,1.77-2.7-2.55-5.2-4.32-2.52h0Z" transform="translate(-636.27 -674.67)"/><path d="M793.57,726.57c-4.39,4.7-6,10.93-7.14,17.1-0.58,3.15,4.23,4.49,4.82,1.33,1-5.24,2.1-10.88,5.86-14.9,2.19-2.35-1.33-5.89-3.54-3.54h0Z" transform="translate(-636.27 -674.67)"/></svg>